<?xml version="1.0" encoding="UTF-8" standalone="no"?>
<!-- Created with Inkscape (http://www.inkscape.org/) -->

<svg
   xmlns:dc="http://purl.org/dc/elements/1.1/"
   xmlns:cc="http://creativecommons.org/ns#"
   xmlns:rdf="http://www.w3.org/1999/02/22-rdf-syntax-ns#"
   xmlns:svg="http://www.w3.org/2000/svg"
   xmlns="http://www.w3.org/2000/svg"
   xmlns:sodipodi="http://sodipodi.sourceforge.net/DTD/sodipodi-0.dtd"
   xmlns:inkscape="http://www.inkscape.org/namespaces/inkscape"
   width="360"
   height="166.5"
   id="svg2"
   version="1.1"
   inkscape:version="0.48.2 r9819"
   sodipodi:docname="plasmondiffraction.svg">
  <defs
     id="defs4">
    <marker
       inkscape:stockid="Arrow2Mstart"
       orient="auto"
       refY="0"
       refX="0"
       id="Arrow2Mstart"
       style="overflow:visible">
      <path
         id="path3788"
         style="font-size:12px;fill-rule:evenodd;stroke-width:0.625;stroke-linejoin:round"
         d="M 8.7185878,4.0337352 -2.2072895,0.01601326 8.7185884,-4.0017078 c -1.7454984,2.3720609 -1.7354408,5.6174519 -6e-7,8.035443 z"
         transform="scale(0.6,0.6)"
         inkscape:connector-curvature="0" />
    </marker>
    <marker
       inkscape:stockid="Arrow2Mend"
       orient="auto"
       refY="0"
       refX="0"
       id="Arrow2Mend"
       style="overflow:visible">
      <path
         id="path3791"
         style="font-size:12px;fill-rule:evenodd;stroke-width:0.625;stroke-linejoin:round"
         d="M 8.7185878,4.0337352 -2.2072895,0.01601326 8.7185884,-4.0017078 c -1.7454984,2.3720609 -1.7354408,5.6174519 -6e-7,8.035443 z"
         transform="scale(-0.6,-0.6)"
         inkscape:connector-curvature="0" />
    </marker>
    <marker
       inkscape:stockid="Arrow2Send"
       orient="auto"
       refY="0"
       refX="0"
       id="Arrow2Send"
       style="overflow:visible">
      <path
         id="path3797"
         style="font-size:12px;fill-rule:evenodd;stroke-width:0.625;stroke-linejoin:round"
         d="M 8.7185878,4.0337352 -2.2072895,0.01601326 8.7185884,-4.0017078 c -1.7454984,2.3720609 -1.7354408,5.6174519 -6e-7,8.035443 z"
         transform="matrix(-0.3,0,0,-0.3,0.69,0)"
         inkscape:connector-curvature="0" />
    </marker>
    <marker
       inkscape:stockid="DotS"
       orient="auto"
       refY="0"
       refX="0"
       id="DotS"
       style="overflow:visible">
      <path
         id="path3832"
         d="m -2.5,-1 c 0,2.76 -2.24,5 -5,5 -2.76,0 -5,-2.24 -5,-5 0,-2.76 2.24,-5 5,-5 2.76,0 5,2.24 5,5 z"
         style="fill-rule:evenodd;stroke:#000000;stroke-width:1pt;marker-start:none;marker-end:none"
         transform="matrix(0.2,0,0,0.2,1.48,0.2)"
         inkscape:connector-curvature="0" />
    </marker>
  </defs>
  <sodipodi:namedview
     id="base"
     pagecolor="#ffffff"
     bordercolor="#666666"
     borderopacity="1.0"
     inkscape:pageopacity="0.0"
     inkscape:pageshadow="2"
     inkscape:zoom="1.979899"
     inkscape:cx="148.2215"
     inkscape:cy="57.682102"
     inkscape:document-units="mm"
     inkscape:current-layer="layer1"
     showgrid="true"
     units="in"
     inkscape:window-width="1618"
     inkscape:window-height="1028"
     inkscape:window-x="-8"
     inkscape:window-y="-8"
     inkscape:window-maximized="1">
    <inkscape:grid
       type="xygrid"
       id="grid2985"
       empspacing="5"
       visible="true"
       enabled="true"
       snapvisiblegridlinesonly="true"
       units="mm"
       spacingx="1mm"
       spacingy="1mm" />
  </sodipodi:namedview>
  <metadata
     id="metadata7">
    <rdf:RDF>
      <cc:Work
         rdf:about="">
        <dc:format>image/svg+xml</dc:format>
        <dc:type
           rdf:resource="http://purl.org/dc/dcmitype/StillImage" />
        <dc:title />
      </cc:Work>
    </rdf:RDF>
  </metadata>
  <g
     inkscape:label="Layer 1"
     inkscape:groupmode="layer"
     id="layer1"
     transform="translate(0,-885.85975)">
    <path
       sodipodi:type="arc"
       style="fill:none;stroke:#000000;stroke-width:0.80078739;stroke-miterlimit:4;stroke-opacity:1;stroke-dasharray:none"
       id="path2987"
       sodipodi:cx="180.70866"
       sodipodi:cy="91.41732"
       sodipodi:rx="70.866142"
       sodipodi:ry="70.866142"
       d="m 251.57481,91.41732 c 0,39.13829 -31.72786,70.86614 -70.86615,70.86614 -39.13829,0 -70.86614,-31.72785 -70.86614,-70.86614 0,-39.138289 31.72785,-70.866142 70.86614,-70.866142 39.13829,0 70.86615,31.727853 70.86615,70.866142 z"
       transform="translate(-2.5231068e-6,882.98967)" />
    <path
       sodipodi:type="arc"
       style="fill:none;stroke:#000000;stroke-width:0.80078739;stroke-miterlimit:4;stroke-opacity:1;stroke-dasharray:none"
       id="path3757"
       sodipodi:cx="180.70866"
       sodipodi:cy="105.59055"
       sodipodi:rx="67.322838"
       sodipodi:ry="67.322838"
       d="m 248.0315,105.59055 c 0,37.18138 -30.14146,67.32284 -67.32284,67.32284 -37.18137,0 -67.32283,-30.14146 -67.32283,-67.32284 0,-37.181373 30.14146,-67.322835 67.32283,-67.322835 37.18138,0 67.32284,30.141462 67.32284,67.322835 z"
       transform="translate(0,868.81644)" />
    <path
       inkscape:connector-curvature="0"
       id="path3759"
       d="m 178.71875,906.22269 c -6.70683,0.19666 -13.50946,1.39288 -20.1875,3.6875 l 0.59375,1.65625 c 34.71072,-11.92684 72.47941,6.53928 84.40625,41.25 l 0.0312,0.0937 c 11.86096,34.68478 -6.57077,72.42766 -41.25,84.34376 l -0.0312,0 c -1.42361,0.4885 -2.89025,0.9219 -4.34375,1.3125 l 0.46875,1.7188 c 1.5021,-0.4037 2.99776,-0.8696 4.46875,-1.375 35.61623,-12.238 54.58173,-51.04008 42.34375,-86.65631 -9.94336,-28.93819 -37.43706,-46.88346 -66.5,-46.03125 z"
       style="font-size:medium;font-style:normal;font-variant:normal;font-weight:normal;font-stretch:normal;text-indent:0;text-align:start;text-decoration:none;line-height:normal;letter-spacing:normal;word-spacing:normal;text-transform:none;direction:ltr;block-progression:tb;writing-mode:lr-tb;text-anchor:start;baseline-shift:baseline;color:#000000;fill:#a40000;fill-opacity:1;stroke:none;stroke-width:1.77165353;marker:none;visibility:visible;display:inline;overflow:visible;enable-background:accumulate;font-family:Sans;-inkscape-font-specification:Sans" />
    <path
       id="path5927"
       d="m 160.47351,910.17369 c 0.3178,0.92487 -0.17491,1.93342 -1.09979,2.25121 -0.92487,0.3178 -1.93342,-0.17491 -2.25121,-1.09978 -0.3178,-0.92488 0.17491,-1.93343 1.09979,-2.25122 0.92487,-0.3178 1.93342,0.17491 2.25121,1.09979 z"
       style="fill:#a40000;fill-rule:evenodd;stroke:none;stroke-width:0.35433071pt;marker-start:none;marker-end:none"
       inkscape:connector-curvature="0" />
    <path
       id="path5929"
       d="m 196.50609,1039.8732 c -0.25384,-0.9445 0.30665,-1.917 1.25109,-2.1708 0.94443,-0.2538 1.91694,0.3066 2.17078,1.2511 0.25383,0.9444 -0.30666,1.9169 -1.25109,2.1708 -0.94444,0.2538 -1.91695,-0.3067 -2.17078,-1.2511 z"
       style="fill:#a40000;fill-rule:evenodd;stroke:none;stroke-width:0.35433071pt;marker-start:none;marker-end:none"
       inkscape:connector-curvature="0" />
    <path
       sodipodi:type="arc"
       style="fill:#a40000;fill-opacity:1;stroke:#a40000;stroke-width:1.77165353;stroke-miterlimit:4;stroke-opacity:1;stroke-dasharray:none"
       id="path4390"
       sodipodi:cx="116.92913"
       sodipodi:cy="126.8504"
       sodipodi:rx="3.5433071"
       sodipodi:ry="3.5433071"
       d="m 120.47244,126.8504 c 0,1.95692 -1.58639,3.54331 -3.54331,3.54331 -1.95691,0 -3.54331,-1.58639 -3.54331,-3.54331 0,-1.95691 1.5864,-3.5433 3.54331,-3.5433 1.95692,0 3.54331,1.58639 3.54331,3.5433 z"
       transform="translate(0,868.81644)" />
    <path
       inkscape:connector-curvature="0"
       id="path4396"
       d="m 158.71875,910.125 a 0.49965627,0.49965627 0 0 0 -0.34375,0.28125 l -20.625,42.53125 -21.28125,42.5 a 0.50316382,0.50316382 0 1 0 0.90625,0.4375 l 21.25,-42.5 20.65625,-42.53125 a 0.49965627,0.49965627 0 0 0 -0.5625,-0.71875 z"
       style="font-size:medium;font-style:normal;font-variant:normal;font-weight:normal;font-stretch:normal;text-indent:0;text-align:start;text-decoration:none;line-height:normal;letter-spacing:normal;word-spacing:normal;text-transform:none;direction:ltr;block-progression:tb;writing-mode:lr-tb;text-anchor:start;baseline-shift:baseline;color:#000000;fill:#ef2929;fill-opacity:1;fill-rule:nonzero;stroke:none;stroke-width:0.99921262;marker:none;visibility:visible;display:inline;overflow:visible;enable-background:accumulate;font-family:Sans;-inkscape-font-specification:Sans" />
    <path
       id="path5909"
       style="font-size:12px;fill:#ef2929;fill-rule:evenodd;stroke-width:0.625;stroke-linejoin:round"
       d="m 142.6686,949.52731 -5.05592,4.81113 0.73457,-6.94044 c 0.81312,1.56728 2.56111,2.42186 4.32135,2.12931 z"
       inkscape:connector-curvature="0" />
    <path
       inkscape:connector-curvature="0"
       id="path4398"
       d="m 212.15625,914.125 a 0.49965627,0.49965627 0 0 0 -0.1875,0.125 l -47.53125,40.28125 -47.84375,40.75 a 0.51015087,0.51015087 0 1 0 0.65625,0.78125 l 47.84375,-40.75 47.5,-40.3125 a 0.49965627,0.49965627 0 0 0 -0.4375,-0.875 z"
       style="font-size:medium;font-style:normal;font-variant:normal;font-weight:normal;font-stretch:normal;text-indent:0;text-align:start;text-decoration:none;line-height:normal;letter-spacing:normal;word-spacing:normal;text-transform:none;direction:ltr;block-progression:tb;writing-mode:lr-tb;text-anchor:start;baseline-shift:baseline;color:#000000;fill:#ef2929;fill-opacity:1;fill-rule:nonzero;stroke:none;stroke-width:0.99921262;marker:none;visibility:visible;display:inline;overflow:visible;enable-background:accumulate;font-family:Sans;-inkscape-font-specification:Sans" />
    <path
       id="path5901"
       style="font-size:12px;fill:#ef2929;fill-rule:evenodd;stroke-width:0.625;stroke-linejoin:round"
       d="m 170.31274,953.3763 -6.55106,2.40685 3.43113,-6.07755 c 0.12363,1.76132 1.38832,3.23995 3.11993,3.6707 z"
       inkscape:connector-curvature="0" />
    <path
       inkscape:connector-curvature="0"
       id="path4400"
       d="m 246.84375,960.4375 -64.5,17.03125 -65.53125,17.71875 a 0.50024408,0.50024408 0 1 0 0.25,0.96875 l 65.53125,-17.71875 0.0312,0 64.46875,-17.03125 a 0.50024408,0.50024408 0 1 0 -0.25,-0.96875 z"
       style="font-size:medium;font-style:normal;font-variant:normal;font-weight:normal;font-stretch:normal;text-indent:0;text-align:start;text-decoration:none;line-height:normal;letter-spacing:normal;word-spacing:normal;text-transform:none;direction:ltr;block-progression:tb;writing-mode:lr-tb;text-anchor:start;baseline-shift:baseline;color:#000000;fill:#ef2929;fill-opacity:1;fill-rule:nonzero;stroke:none;stroke-width:0.99921262;marker:none;visibility:visible;display:inline;overflow:visible;enable-background:accumulate;font-family:Sans;-inkscape-font-specification:Sans" />
    <path
       id="path5893"
       style="font-size:12px;fill:#ef2929;fill-rule:evenodd;stroke-width:0.625;stroke-linejoin:round"
       d="m 188.1544,978.93771 -6.95011,-0.63661 5.7068,-4.01766 c -0.644,1.64401 -0.13602,3.52224 1.24331,4.65427 z"
       inkscape:connector-curvature="0" />
    <path
       inkscape:connector-curvature="0"
       id="path4402"
       d="m 116.84375,995.15625 a 0.5,0.5 0 1 0 0,1 l 58.46875,8.87495 60.125,9.2813 a 0.49965627,0.49965627 0 1 0 0.125,-0.9687 L 175.46875,1004.0312 117,995.1875 a 0.49965627,0.49965627 0 0 0 -0.15625,-0.0312 z"
       style="font-size:medium;font-style:normal;font-variant:normal;font-weight:normal;font-stretch:normal;text-indent:0;text-align:start;text-decoration:none;line-height:normal;letter-spacing:normal;word-spacing:normal;text-transform:none;direction:ltr;block-progression:tb;writing-mode:lr-tb;text-anchor:start;baseline-shift:baseline;color:#000000;fill:#ef2929;fill-opacity:1;fill-rule:nonzero;stroke:none;stroke-width:0.99921262;marker:none;visibility:visible;display:inline;overflow:visible;enable-background:accumulate;font-family:Sans;-inkscape-font-specification:Sans" />
    <path
       id="path5885"
       style="font-size:12px;fill:#ef2929;fill-rule:evenodd;stroke-width:0.625;stroke-linejoin:round"
       d="m 180.19448,1007.7067 -6.11032,-3.3724 6.83948,-1.3895 c -1.24966,1.2473 -1.5382,3.1715 -0.72916,4.7619 z"
       inkscape:connector-curvature="0" />
    <path
       inkscape:connector-curvature="0"
       id="path4404"
       d="m 116.875,995.15625 a 0.49965627,0.49965627 0 0 0 -0.1875,0.96875 l 40.75,21.25 c 0,0 10.11815,5.7013 20.25,11.375 5.06592,2.8368 10.12972,5.6533 13.9375,7.75 1.90389,1.0484 3.50689,1.9364 4.625,2.5312 0.55906,0.2975 1.00331,0.5032 1.3125,0.6563 0.15459,0.077 0.24657,0.1464 0.34375,0.1875 0.0486,0.021 0.0958,0.045 0.15625,0.062 0.0302,0.01 0.07,0 0.15625,0 0.0431,0 0.21724,-0.031 0.21875,-0.031 0.002,-6e-4 0.28097,-0.3424 0.28125,-0.3437 a 0.49965627,0.49965627 0 0 0 -0.375,-0.5937 0.49965627,0.49965627 0 0 0 -0.0625,-0.031 c -0.0116,-0.01 -0.0485,0.01 -0.0625,0 -0.0631,-0.029 -0.11375,-0.073 -0.21875,-0.125 -0.29167,-0.1445 -0.72644,-0.3923 -1.28125,-0.6875 -1.10962,-0.5904 -2.69195,-1.4528 -4.59375,-2.5 -3.8036,-2.0944 -8.87261,-4.9138 -13.9375,-7.75 -10.12977,-5.6725 -20.25,-11.375 -20.25,-11.375 l -0.0312,0 0,-0.031 -40.75,-21.25005 a 0.49965627,0.49965627 0 0 0 -0.28125,-0.0625 z"
       style="font-size:medium;font-style:normal;font-variant:normal;font-weight:normal;font-stretch:normal;text-indent:0;text-align:start;text-decoration:none;line-height:normal;letter-spacing:normal;word-spacing:normal;text-transform:none;direction:ltr;block-progression:tb;writing-mode:lr-tb;text-anchor:start;baseline-shift:baseline;color:#000000;fill:#ef2929;fill-opacity:1;fill-rule:nonzero;stroke:none;stroke-width:0.99921262;marker:none;visibility:visible;display:inline;overflow:visible;enable-background:accumulate;font-family:Sans;-inkscape-font-specification:Sans" />
    <path
       id="path5877"
       style="font-size:12px;fill:#ef2929;fill-rule:evenodd;stroke-width:0.625;stroke-linejoin:round"
       d="m 161.11664,1021.5462 -4.607,-5.2426 6.90588,1.0091 c -1.59827,0.7503 -2.52145,2.4631 -2.29888,4.2335 z"
       inkscape:connector-curvature="0" />
    <path
       sodipodi:type="arc"
       style="fill:none;stroke:#000000;stroke-width:0.99921262;stroke-miterlimit:4;stroke-opacity:1;stroke-dasharray:none;marker-start:url(#Arrow2Mstart);marker-mid:none;marker-end:none"
       id="path4966"
       sodipodi:cx="180.70866"
       sodipodi:cy="105.59055"
       sodipodi:rx="85.039368"
       sodipodi:ry="85.039368"
       d="m 187.5922,20.830238 c 46.81183,3.801671 81.67845,44.83202 77.87678,91.643852 -1.6252,20.01185 -10.27861,38.80329 -24.42832,53.04763"
       transform="translate(0,868.81644)"
       sodipodi:start="4.7934229"
       sodipodi:end="7.0652506"
       sodipodi:open="true" />
    <text
       xml:space="preserve"
       style="font-size:10px;font-style:normal;font-variant:normal;font-weight:normal;font-stretch:normal;line-height:125%;letter-spacing:0px;word-spacing:0px;fill:#000000;fill-opacity:1;stroke:none;font-family:Corbel;-inkscape-font-specification:Corbel"
       x="265.74802"
       y="946.06049"
       id="text5716"
       sodipodi:linespacing="125%"><tspan
         sodipodi:role="line"
         id="tspan5718"
         x="265.74802"
         y="946.06049">$ζ$</tspan></text>
    <text
       xml:space="preserve"
       style="font-size:10px;font-style:normal;font-variant:normal;font-weight:normal;font-stretch:normal;line-height:125%;letter-spacing:0px;word-spacing:0px;fill:#a40000;fill-opacity:1;stroke:none;font-family:Corbel;-inkscape-font-specification:Corbel"
       x="201.96851"
       y="1052.3597"
       id="text5720"
       sodipodi:linespacing="125%"><tspan
         sodipodi:role="line"
         id="tspan5722"
         x="201.96851"
         y="1052.3597">$(R_0, θ + π/2)$</tspan></text>
    <text
       sodipodi:linespacing="125%"
       id="text5724"
       y="903.54083"
       x="155.90552"
       style="font-size:10px;font-style:normal;font-variant:normal;font-weight:normal;font-stretch:normal;text-align:end;line-height:125%;letter-spacing:0px;word-spacing:0px;writing-mode:lr-tb;text-anchor:end;fill:#a40000;fill-opacity:1;stroke:none;font-family:Corbel;-inkscape-font-specification:Corbel"
       xml:space="preserve"><tspan
         y="903.54083"
         x="155.90552"
         id="tspan5726"
         sodipodi:role="line">$(R_0, θ + 3π/2)$</tspan></text>
    <text
       xml:space="preserve"
       style="font-size:10px;font-style:normal;font-variant:normal;font-weight:normal;font-stretch:normal;text-align:end;line-height:125%;letter-spacing:0px;word-spacing:0px;writing-mode:lr-tb;text-anchor:end;fill:#a40000;fill-opacity:1;stroke:none;font-family:Corbel;-inkscape-font-specification:Corbel"
       x="109.84252"
       y="999.21014"
       id="text5728"
       sodipodi:linespacing="125%"><tspan
         sodipodi:role="line"
         id="tspan5730"
         x="109.84252"
         y="999.21014">$(R_0, θ)$</tspan></text>
    <text
       xml:space="preserve"
       style="font-size:10px;font-style:normal;font-variant:normal;font-weight:normal;font-stretch:normal;text-align:center;line-height:125%;letter-spacing:0px;word-spacing:0px;writing-mode:lr-tb;text-anchor:middle;fill:#a40000;fill-opacity:1;stroke:none;font-family:Corbel;-inkscape-font-specification:Corbel"
       x="-67.625801"
       y="989.36572"
       id="text5732"
       sodipodi:linespacing="125%"
       transform="matrix(0.96763015,-0.25237253,0.25237253,0.96763015,0,0)"><tspan
         sodipodi:role="line"
         id="tspan5734"
         x="-67.625801"
         y="989.36572">$\vrsep(ζ)$</tspan></text>
  </g>
</svg>
